<svg width="18" height="20" viewBox="0 0 18 20" fill="none" xmlns="http://www.w3.org/2000/svg">
<path d="M8.99999 -0.00378418C13.0499 -0.00378418 16.3567 3.19096 16.4958 7.24527L16.5 7.49622V11.5932L17.88 14.7492C17.949 14.9071 17.9847 15.0776 17.9847 15.25C17.9847 15.9403 17.425 16.5 16.7347 16.5L12 16.5015C12 18.1583 10.6568 19.5015 8.99999 19.5015C7.40231 19.5015 6.09633 18.2526 6.00508 16.6778L5.99954 16.4992L1.27485 16.5C1.10351 16.5 0.934005 16.4648 0.776852 16.3965C0.14365 16.1215 -0.146699 15.3852 0.12834 14.752L1.49999 11.5941V7.49611C1.50059 3.34132 4.85208 -0.00378418 8.99999 -0.00378418ZM10.4995 16.4992L7.49999 16.5015C7.49999 17.3299 8.17156 18.0015 8.99999 18.0015C9.77969 18.0015 10.4204 17.4066 10.4931 16.6459L10.4995 16.4992ZM8.99999 1.49622C5.67983 1.49622 3.00047 4.17047 2.99999 7.49622V11.9058L1.65601 15H16.3525L15 11.9068L15.0001 7.50907L14.9964 7.28387C14.8853 4.0504 12.2416 1.49622 8.99999 1.49622Z" fill="#242424"/>
</svg>
